<?xml version="1.0" standalone="no"?>
<!DOCTYPE svg PUBLIC "-//W3C//DTD SVG 20010904//EN"
 "http://www.w3.org/TR/2001/REC-SVG-20010904/DTD/svg10.dtd">
<svg version="1.0" xmlns="http://www.w3.org/2000/svg"
 width="1332.000000pt" height="1622.000000pt" viewBox="0 0 1332.000000 1622.000000"
 preserveAspectRatio="xMidYMid meet">

<g transform="translate(0.000000,1622.000000) scale(0.100000,-0.100000)"
fill="#ffffff" stroke="none">
<path d="M6550 16213 c-100 -6 -274 -34 -375 -60 -347 -90 -658 -272 -910
-534 -151 -157 -250 -298 -346 -494 -318 -650 -246 -1413 190 -2005 68 -93
241 -272 341 -353 203 -163 476 -300 738 -367 41 -10 43 -12 38 -43 -3 -18
-22 -312 -43 -654 l-37 -623 -1878 0 c-1033 0 -1878 -3 -1878 -8 0 -4 237
-244 528 -534 l527 -527 135 224 135 225 1198 0 1198 0 -5 -32 c-3 -18 -103
-1610 -222 -3538 -120 -1928 -219 -3507 -221 -3510 -14 -17 -593 87 -860 154
-1244 314 -2265 966 -3018 1926 -170 217 -425 605 -408 620 4 4 148 37 318 75
171 37 317 71 326 74 12 5 -154 285 -778 1311 -436 718 -803 1320 -814 1339
-11 18 -22 32 -24 29 -6 -6 -406 -3121 -401 -3125 2 -2 156 30 342 72 186 41
343 75 349 75 6 0 23 -35 39 -77 107 -288 304 -707 463 -983 323 -559 669
-1008 1119 -1450 295 -289 457 -421 869 -705 748 -515 1433 -1006 1812 -1297
344 -265 493 -391 1123 -948 107 -95 272 -240 367 -321 l172 -149 178 154 c98
84 327 285 508 446 794 704 1228 1034 2665 2030 544 377 687 490 989 785 662
647 1191 1445 1539 2323 42 105 81 192 87 192 6 0 163 -34 349 -75 186 -42
340 -74 341 -73 5 5 -397 3122 -403 3128 -2 3 -7 1 -9 -5 -2 -5 -368 -608
-813 -1340 -669 -1101 -806 -1331 -792 -1337 9 -4 152 -37 317 -73 165 -36
308 -69 318 -73 15 -6 11 -17 -33 -90 -143 -238 -341 -510 -534 -734 -806
-934 -1880 -1540 -3186 -1798 -205 -40 -516 -88 -523 -80 -3 3 -102 1571 -221
3485 -119 1914 -219 3506 -222 3538 l-6 57 1199 0 1198 -1 135 -224 135 -225
527 527 c291 291 528 531 528 535 0 5 -846 8 -1880 8 l-1880 0 0 28 c0 15 -18
308 -40 652 -22 343 -38 625 -37 627 2 1 43 14 91 28 512 148 937 491 1185
956 284 533 300 1176 43 1731 -251 542 -776 954 -1367 1073 -109 22 -354 48
-415 43 -14 -1 -50 -3 -80 -5z m295 -908 c424 -74 767 -419 841 -849 21 -120
14 -317 -15 -436 -25 -97 -90 -240 -151 -331 -55 -81 -187 -213 -267 -267
-128 -86 -256 -140 -395 -167 -106 -20 -307 -19 -406 1 -422 87 -754 432 -822
856 -18 110 -8 331 19 432 59 221 202 433 386 569 233 173 523 242 810 192z"/>
</g>
</svg>
